<?xml version="1.0" encoding="UTF-8"?>
<svg id="Group_422" xmlns="http://www.w3.org/2000/svg" xmlns:xlink="http://www.w3.org/1999/xlink" version="1.1" viewBox="0 0 186 80.4">
  <!-- Generator: Adobe Illustrator 29.8.3, SVG Export Plug-In . SVG Version: 2.1.1 Build 3)  -->
  <defs>
    <style>
      .st0 {
        fill: url(#linear-gradient2);
      }

      .st1 {
        fill: url(#linear-gradient1);
      }

      .st2 {
        fill: url(#linear-gradient);
      }

      .st3 {
        fill: #1d2256;
      }
    </style>
    <linearGradient id="linear-gradient" x1=".2" y1="33" x2="9.4" y2="33" gradientUnits="userSpaceOnUse">
      <stop offset="0" stop-color="#f6921e"/>
      <stop offset="1" stop-color="#f05a22"/>
    </linearGradient>
    <linearGradient id="linear-gradient1" y1="42.1" x2="35.3" y2="42.1" xlink:href="#linear-gradient"/>
    <linearGradient id="linear-gradient2" x1="11.8" y1="55.1" x2="41.5" y2="55.1" xlink:href="#linear-gradient"/>
  </defs>
  <g>
    <polygon class="st2" points="9.4 27.4 .2 47.9 .2 18.1 9.4 27.4"/>
    <polygon class="st1" points="35.3 39 6.7 59.8 .2 59.8 .2 53.1 20.9 24.4 35.3 39"/>
    <polygon class="st0" points="32.3 50.5 11.8 59.8 41.5 59.8 32.3 50.5"/>
  </g>
  <g>
    <path class="st3" d="M52.8,50.3c.9.5,1.5,1.4,1.7,2.6h-1.3c-.2-.7-.5-1.2-.9-1.5-.5-.3-1.1-.5-1.8-.5s-1.6.3-2.2,1c-.6.7-.9,1.6-.9,2.9s.2,2,.7,2.7c.5.7,1.3,1.1,2.4,1.1s1.5-.2,2.1-.7c.5-.5.8-1.3.8-2.4h-3v-1.1h4.1v5.1h-.8l-.3-1.2c-.4.5-.8.8-1.1,1-.6.3-1.3.5-2.1.5s-2-.4-2.8-1.1c-.9-.9-1.3-2.2-1.3-3.7s.4-2.8,1.3-3.8c.8-.9,1.8-1.3,3.1-1.3s1.6.2,2.3.5Z"/>
    <path class="st3" d="M57.7,52.6h1.1v1.2c0-.2.3-.5.7-.8.4-.3.8-.5,1.2-.5s0,0,.1,0c0,0,.1,0,.3,0v1.2c0,0-.1,0-.2,0,0,0-.1,0-.2,0-.6,0-1,.2-1.3.6-.3.4-.5.8-.5,1.3v4h-1.2v-6.9Z"/>
    <path class="st3" d="M68.1,53.3c.6.6.9,1.5.9,2.6s-.3,2-.8,2.7c-.5.7-1.4,1.1-2.5,1.1s-1.7-.3-2.2-1c-.6-.6-.8-1.5-.8-2.6s.3-2.1.9-2.8c.6-.7,1.4-1,2.3-1s1.6.3,2.2.9ZM67.4,57.9c.3-.6.4-1.2.4-1.9s-.1-1.2-.3-1.6c-.3-.6-.9-1-1.7-1s-1.2.3-1.5.8-.5,1.2-.5,2,.2,1.3.5,1.8c.3.5.8.7,1.5.7s1.3-.3,1.6-.9Z"/>
    <path class="st3" d="M72.7,52.6v4.6c0,.4,0,.6.2.9.2.4.6.6,1.1.6.8,0,1.3-.4,1.6-1.1.2-.4.2-.9.2-1.6v-3.4h1.2v6.9h-1.1v-1c-.1.3-.3.5-.5.7-.4.4-1,.5-1.6.5-1,0-1.6-.3-2-1-.2-.4-.3-.8-.3-1.4v-4.7h1.2Z"/>
    <path class="st3" d="M79.8,52.7h1.1v.9c.2-.3.5-.6.8-.7.4-.3.9-.4,1.4-.4.8,0,1.4.3,2,.9s.8,1.5.8,2.6-.4,2.6-1.2,3.2c-.5.4-1.1.6-1.7.6s-1-.1-1.3-.3c-.2-.1-.4-.3-.7-.7v3.5h-1.2v-9.6ZM84.2,58.1c.4-.5.5-1.1.5-2s0-1-.2-1.4c-.3-.8-.9-1.1-1.7-1.1s-1.4.4-1.7,1.2c-.2.4-.2,1-.2,1.6s0,1,.2,1.4c.3.7.9,1.1,1.7,1.1s1-.2,1.4-.7Z"/>
  </g>
  <g>
    <path class="st3" d="M46.2,29.4h3.3v16.8h-3.3v-16.8ZM48.2,43.1h9.3v3.1h-9.3v-3.1Z"/>
    <path class="st3" d="M59.8,45.6c-.8-.7-1.3-1.6-1.3-2.9,0-2.6,1.6-4,4.9-4.1l4.2-.2v1.8l-2.5.2c-.9,0-1.6.2-2.2.4-.5.2-.9.4-1.1.8-.2.3-.3.7-.3,1.2,0,.5.1.9.4,1.1s.6.4.9.5c.3,0,.7.1,1,.1,1.1,0,2-.4,2.6-1.1.6-.7.9-1.8.9-3.2h1.1c0,1.3-.2,2.5-.6,3.4-.4,1-1,1.7-1.8,2.2-.8.5-1.8.8-2.9.8s-2.5-.3-3.3-1ZM66.6,36.2c-.5-.4-1.2-.5-2-.5s-1.4.1-1.9.4c-.4.3-.7.7-.8,1.4l-3.1-.6c.2-.8.5-1.5,1.1-2,.6-.6,1.2-1,2-1.3.8-.3,1.6-.4,2.5-.4s2,.2,2.9.5c.9.3,1.7.8,2.2,1.5.6.7.9,1.5.9,2.5v8.6h-3.1v-8.3c0-.7-.2-1.3-.7-1.7Z"/>
    <path class="st3" d="M72.4,33.6h3v12.6h-3v-12.6ZM80.7,37.2c-.2-.5-.5-.8-.9-1.1-.4-.2-.9-.3-1.5-.3-.9,0-1.7.3-2.2.9-.5.6-.8,1.4-.7,2.5l-.6-.2c0-1.2.2-2.2.5-3.1.4-.9.9-1.5,1.6-2s1.5-.7,2.4-.7,1.8.2,2.5.6c.7.4,1.3,1,1.7,1.8.4.8.6,1.7.6,2.8v7.7h-3.2v-7.1c0-.8,0-1.4-.3-1.9Z"/>
    <path class="st3" d="M88.4,45.7c-.9-.6-1.7-1.3-2.2-2.3-.5-1-.8-2.2-.8-3.5s.3-2.5.8-3.5c.5-1,1.3-1.8,2.2-2.3.9-.6,2-.8,3.3-.8s2.7.5,3.5,1.6c.8,1.1,1.2,2.7,1.2,4.7,0,1.3-.1,2.4-.5,3.5-.3,1.1-.8,1.9-1.6,2.6-.7.7-1.6,1-2.7,1s-2.3-.3-3.3-.8ZM93.8,43.7c.5-.3,1-.8,1.3-1.5.3-.7.5-1.4.5-2.3,0-1.4-.3-2.4-1-3.2-.6-.7-1.5-1.1-2.7-1.1s-1.9.4-2.5,1.1c-.6.7-.9,1.8-.9,3.2s.3,2.5.9,3.2c.6.7,1.4,1.1,2.5,1.1s1.3-.2,1.8-.5ZM95.4,42.7l.7-3.3-.7-2.8v-7.3h3.2v16.8h-3.2v-3.4Z"/>
    <path class="st3" d="M103.1,45.7c-1-.6-1.7-1.3-2.3-2.3-.5-1-.8-2.2-.8-3.5s.3-2.5.8-3.5c.5-1,1.3-1.8,2.2-2.3,1-.6,2.1-.8,3.4-.8,1.9,0,3.4.6,4.5,1.8,1,1.2,1.6,2.9,1.6,5-1.1-.2-2.1-.3-3.2-.4,0-1.3-.2-2.2-.7-2.9-.5-.7-1.2-1-2.3-1s-1.9.3-2.4,1c-.5.7-.7,1.7-.7,3s.1,1.8.3,2.4c.2.6.6,1.1,1.1,1.4s1.1.4,2,.4,1.4-.1,1.8-.4.7-.8.9-1.4l3.1.8c-.5,1.3-1.2,2.2-2.1,2.8-.9.6-2.2.9-3.7.9s-2.5-.3-3.5-.8ZM102,38.8h10.2l.3,1.1v1.1h-10.5v-2.2Z"/>
    <path class="st3" d="M116.9,39.9l-4.3-6.3h3.7l3,4.6,3-4.6h3.7l-4.3,6.3,4.3,6.3h-3.7l-4-5.9,1-1.9,1,1.9-4,5.9h-3.7l4.3-6.3Z"/>
    <path class="st3" d="M127,33.6h3.2v2.6l-.8,3.7.8,3.5v7h-3.2v-16.8ZM131.2,45.7c-.7-.6-1.2-1.4-1.6-2.3-.3-1-.5-2.1-.5-3.4,0-1.4.2-2.6.5-3.6.4-1,.9-1.8,1.6-2.4.7-.6,1.6-.8,2.6-.8s2.3.3,3.3.8c.9.6,1.7,1.3,2.2,2.3.5,1,.8,2.2.8,3.5s-.3,2.5-.8,3.5c-.5,1-1.3,1.8-2.2,2.3-.9.6-2,.8-3.3.8s-2-.3-2.7-.9ZM136.1,43.1c.6-.7.9-1.8.9-3.2s-.3-2.4-.9-3.2c-.6-.7-1.4-1.1-2.5-1.1s-2,.4-2.7,1.1c-.6.7-1,1.8-1,3.2s.2,1.7.5,2.3c.3.7.8,1.1,1.3,1.5s1.2.5,1.8.5c1.1,0,1.9-.4,2.5-1.1Z"/>
    <path class="st3" d="M142.5,45.6c-.8-.7-1.3-1.6-1.3-2.9,0-2.6,1.6-4,4.9-4.1l4.2-.2v1.8l-2.5.2c-.9,0-1.6.2-2.2.4-.5.2-.9.4-1.1.8-.2.3-.3.7-.3,1.2,0,.5.1.9.4,1.1s.6.4.9.5c.3,0,.7.1,1,.1,1.1,0,2-.4,2.6-1.1.6-.7.9-1.8.9-3.2h1.1c0,1.3-.2,2.5-.6,3.4-.4,1-1,1.7-1.8,2.2-.8.5-1.8.8-2.9.8s-2.5-.3-3.3-1ZM149.3,36.2c-.5-.4-1.2-.5-2-.5s-1.4.1-1.9.4c-.4.3-.7.7-.8,1.4l-3.1-.6c.2-.8.5-1.5,1.1-2,.6-.6,1.2-1,2-1.3.8-.3,1.6-.4,2.5-.4s2,.2,2.9.5c.9.3,1.7.8,2.2,1.5.6.7.9,1.5.9,2.5v8.6h-3.1v-8.3c0-.7-.2-1.3-.7-1.7Z"/>
    <path class="st3" d="M155,33.6h3v12.6h-3v-12.6ZM163.4,37.2c-.2-.5-.5-.8-.9-1.1-.4-.2-.9-.3-1.5-.3-.9,0-1.7.3-2.2.9-.5.6-.8,1.4-.7,2.5l-.6-.2c0-1.2.2-2.2.6-3.1s.9-1.5,1.6-2c.7-.5,1.5-.7,2.4-.7s1.8.2,2.5.6c.7.4,1.3,1,1.7,1.8.4.8.6,1.7.6,2.8v7.7h-3.2v-7.1c0-.8,0-1.4-.3-1.9Z"/>
    <path class="st3" d="M171.1,45.7c-.9-.6-1.7-1.3-2.2-2.3-.5-1-.8-2.2-.8-3.5s.3-2.5.8-3.5c.5-1,1.3-1.8,2.2-2.3.9-.6,2-.8,3.3-.8s2.7.5,3.5,1.6c.8,1.1,1.2,2.7,1.2,4.7,0,1.3-.1,2.4-.5,3.5-.3,1.1-.8,1.9-1.6,2.6-.7.7-1.6,1-2.7,1s-2.3-.3-3.3-.8ZM176.5,43.7c.5-.3,1-.8,1.3-1.5.3-.7.5-1.4.5-2.3,0-1.4-.3-2.4-1-3.2-.6-.7-1.5-1.1-2.7-1.1s-1.9.4-2.5,1.1-.9,1.8-.9,3.2.3,2.5.9,3.2,1.4,1.1,2.5,1.1,1.3-.2,1.8-.5ZM178,42.7l.7-3.3-.7-2.8v-7.3h3.2v16.8h-3.2v-3.4Z"/>
    <path class="st3" d="M182.6,31h0c0-.9.7-1.6,1.6-1.6s1.6.7,1.6,1.6h0c0,.9-.7,1.6-1.6,1.6s-1.6-.7-1.6-1.6ZM185.6,31h0c0-.8-.6-1.4-1.4-1.4s-1.4.6-1.4,1.4h0c0,.8.6,1.4,1.4,1.4s1.4-.6,1.4-1.4ZM183.5,30.1h.7c.2,0,.4,0,.5.2s.1.2.1.4h0c0,.3-.2.4-.4.5l.5.6h-.4l-.4-.6h-.3v.6h-.3v-1.7ZM184.2,30.9c.2,0,.3-.1.3-.3h0c0-.2-.1-.3-.3-.3h-.4v.5h.4Z"/>
  </g>
</svg>