<svg viewBox="0 0.12381051428571431 182.652 42.157142857142865" xmlns:xlink="http://www.w3.org/1999/xlink" xmlns="http://www.w3.org/2000/svg" data-name="Layer 2" id="Layer_2" style="max-height: 500px" width="182.652" height="42.157142857142865">
  <defs>
    <style>
      .cls-1 {
        fill: url(#linear-gradient-3);
      }

      .cls-2 {
        fill: url(#linear-gradient-2);
      }

      .cls-3 {
        fill: url(#linear-gradient);
      }

      .cls-4 {
        fill: #fff;
      }
    </style>
    <linearGradient gradientUnits="userSpaceOnUse" gradientTransform="translate(0 46) scale(1 -1)" y2="31.1" x2="9.3" y1="31.1" x1="0" id="linear-gradient">
      <stop stop-color="#f6921e" offset="0"/>
      <stop stop-color="#f05a22" offset="1"/>
    </linearGradient>
    <linearGradient xlink:href="#linear-gradient" y2="22.05" x2="35.2" y1="22.05" id="linear-gradient-2"/>
    <linearGradient xlink:href="#linear-gradient" y2="8.9" x2="41.5" y1="8.9" x1="11.6" id="linear-gradient-3"/>
  </defs>
  <g data-name="Group 422" id="Group_422">
    <g>
      <polygon points="9.3 9.3 0 29.8 0 0 9.3 9.3" class="cls-3"/>
      <polygon points="35.2 20.9 6.5 41.7 0 41.7 0 35.1 20.8 6.2 35.2 20.9" class="cls-2"/>
      <polygon points="32.2 32.5 11.6 41.7 41.5 41.7 32.2 32.5" class="cls-1"/>
    </g>
    <g>
      <path d="M52.8,32.3c.9.5,1.5,1.4,1.7,2.6h-1.3c-.2-.7-.5-1.2-.9-1.5-.5-.3-1.1-.5-1.8-.5s-1.6.3-2.2,1c-.6.7-.9,1.6-.9,2.9s.2,2,.7,2.7,1.3,1.1,2.4,1.1,1.5-.2,2.1-.7c.5-.5.8-1.3.8-2.4h-3v-1.1h4.2v5.1h-.8l-.3-1.2c-.4.5-.8.8-1.1,1-.6.3-1.3.5-2.1.5s-2.1-.4-2.8-1.1c-.9-.9-1.3-2.2-1.3-3.8s.4-2.8,1.3-3.8c.8-.9,1.8-1.3,3.1-1.3s1.6.2,2.3.5h-.1Z" class="cls-4"/>
      <path d="M57.7,34.6h1.1v1.2c0-.2.3-.5.7-.8s.8-.5,1.2-.5,0,0,.1,0h.3v1.2h-.4c-.6,0-1,.2-1.3.6-.3.4-.5.8-.5,1.3v4h-1.2v-7Z" class="cls-4"/>
      <path d="M68.1,35.3c.6.6.9,1.5.9,2.6s-.3,2-.8,2.8c-.5.7-1.4,1.1-2.5,1.1s-1.7-.3-2.2-1c-.6-.6-.8-1.5-.8-2.6s.3-2.1.9-2.8c.6-.7,1.4-1,2.4-1s1.6.3,2.2.9h-.1ZM67.4,39.9c.3-.6.4-1.2.4-1.9s-.1-1.2-.3-1.6c-.3-.6-.9-1-1.7-1s-1.2.3-1.5.8-.5,1.2-.5,2,.2,1.3.5,1.8.8.7,1.5.7,1.3-.3,1.6-.9v.1Z" class="cls-4"/>
      <path d="M72.7,34.6v4.6c0,.4,0,.6.2.9.2.4.6.6,1.1.6.8,0,1.3-.4,1.6-1.1.2-.4.2-.9.2-1.6v-3.4h1.2v6.9h-1.1v-1c-.1.3-.3.5-.5.7-.4.4-1,.5-1.6.5-1,0-1.6-.3-2-1-.2-.4-.3-.8-.3-1.4v-4.7h1.2Z" class="cls-4"/>
      <path d="M79.8,34.6h1.1v.9c.2-.3.5-.6.8-.7.4-.3.9-.4,1.4-.4.8,0,1.4.3,2,.9s.8,1.5.8,2.6-.4,2.6-1.2,3.2c-.5.4-1.1.6-1.7.6s-1-.1-1.3-.3c-.2-.1-.4-.4-.7-.7v3.5h-1.2v-9.6h0ZM84.2,40c.4-.5.5-1.1.5-2s0-1-.2-1.4c-.3-.8-.9-1.1-1.7-1.1s-1.4.4-1.7,1.2c-.2.4-.2,1-.2,1.6s0,1,.2,1.4c.3.7.9,1.1,1.7,1.1s1-.2,1.4-.7v-.1Z" class="cls-4"/>
    </g>
    <g>
      <path d="M46.1,11.3h3.3v16.8h-3.3V11.3ZM48.1,25h9.3v3.1h-9.3v-3.1Z" class="cls-4"/>
      <path d="M59.8,27.5c-.8-.7-1.3-1.6-1.3-2.9,0-2.6,1.6-4,4.9-4.1l4.2-.2v1.8l-2.5.2c-.9,0-1.6.2-2.2.4-.5.2-.9.4-1.1.8-.2.3-.3.7-.3,1.2s.1.9.4,1.2.6.4.9.5c.3,0,.7.1,1,.1,1.1,0,2-.4,2.6-1.1s.9-1.8.9-3.2h1.1c0,1.3-.2,2.5-.6,3.4-.4,1-1,1.7-1.8,2.2s-1.8.8-2.9.8-2.5-.3-3.3-1v-.1ZM66.6,18.2c-.5-.4-1.2-.5-2-.5s-1.4.1-1.9.4c-.4.3-.7.7-.8,1.4l-3.1-.6c.2-.8.6-1.5,1.1-2,.6-.6,1.2-1,2-1.3s1.6-.4,2.5-.4,2,.2,2.9.5,1.7.8,2.2,1.5c.6.7.9,1.5.9,2.5v8.6h-3.1v-8.3c0-.8-.2-1.3-.7-1.7v-.1Z" class="cls-4"/>
      <path d="M72.4,15.5h3v12.6h-3v-12.6ZM80.7,19.1c-.2-.5-.5-.8-.9-1.1-.4-.2-.9-.3-1.5-.3-.9,0-1.7.3-2.2.9s-.8,1.4-.7,2.5l-.6-.2c0-1.2.2-2.2.6-3.1s.9-1.5,1.6-2,1.5-.7,2.4-.7,1.8.2,2.5.6,1.3,1,1.8,1.8c.4.8.6,1.7.6,2.8v7.7h-3.2v-7.1c0-.8,0-1.4-.3-1.9l-.1.1Z" class="cls-4"/>
      <path d="M88.5,27.7c-.9-.6-1.7-1.3-2.2-2.4-.5-1-.8-2.2-.8-3.5s.3-2.5.8-3.5,1.3-1.8,2.2-2.4c.9-.6,2-.8,3.3-.8s2.7.5,3.5,1.6c.8,1.1,1.2,2.7,1.2,4.7,0,1.3-.1,2.4-.5,3.5-.3,1.1-.8,1.9-1.6,2.6-.7.7-1.6,1-2.7,1s-2.3-.3-3.3-.8h.1ZM93.9,25.6c.5-.3,1-.8,1.3-1.5s.5-1.4.5-2.4c0-1.4-.3-2.4-1-3.2-.6-.7-1.5-1.1-2.7-1.1s-1.9.4-2.5,1.1-.9,1.8-.9,3.2.3,2.5.9,3.2,1.4,1.1,2.5,1.1,1.3-.2,1.8-.5l.1.1ZM95.4,24.7l.7-3.3-.7-2.8v-7.3h3.2v16.8h-3.2v-3.4Z" class="cls-4"/>
      <path d="M103.2,27.7c-1-.6-1.7-1.3-2.3-2.3-.5-1-.8-2.2-.8-3.5s.3-2.5.8-3.5,1.3-1.8,2.2-2.4c1-.6,2.1-.8,3.4-.8,1.9,0,3.4.6,4.5,1.8,1,1.2,1.6,2.9,1.6,5-1.1-.2-2.1-.3-3.2-.4,0-1.3-.2-2.2-.7-2.9-.5-.7-1.2-1-2.3-1s-1.9.3-2.4,1-.7,1.7-.7,3.1.1,1.8.3,2.4c.2.6.6,1.1,1.1,1.4s1.1.4,2,.4,1.4-.1,1.8-.4.7-.8.9-1.4l3.1.8c-.5,1.3-1.2,2.2-2.1,2.8-.9.6-2.2.9-3.7.9s-2.5-.3-3.5-.8v-.2ZM102.1,20.7h10.2l.3,1.1v1.1h-10.6v-2.2h.1Z" class="cls-4"/>
      <path d="M116.9,21.8l-4.3-6.3h3.7l3,4.6,3-4.6h3.7l-4.3,6.3,4.3,6.3h-3.7l-4-5.9,1-1.9,1,1.9-4,5.9h-3.7l4.3-6.3Z" class="cls-4"/>
      <path d="M127.1,15.5h3.2v2.6l-.8,3.7.8,3.5v7h-3.2s0-16.8,0-16.8ZM131.3,27.6c-.7-.6-1.2-1.4-1.6-2.4-.3-1-.5-2.1-.5-3.4,0-1.4.2-2.6.5-3.6.4-1,.9-1.8,1.6-2.4.7-.6,1.6-.8,2.6-.8s2.3.3,3.3.8c.9.6,1.7,1.3,2.2,2.4.5,1,.8,2.2.8,3.5s-.3,2.5-.8,3.5-1.3,1.8-2.2,2.4-2,.8-3.3.8-2-.3-2.7-.9l.1.1ZM136.2,25c.6-.7.9-1.8.9-3.2s-.3-2.4-.9-3.2c-.6-.7-1.4-1.1-2.5-1.1s-2,.4-2.7,1.1c-.6.7-1,1.8-1,3.2s.2,1.7.5,2.4c.3.7.8,1.1,1.3,1.5s1.2.5,1.8.5c1.1,0,1.9-.4,2.5-1.1l.1-.1Z" class="cls-4"/>
      <path d="M142.6,27.5c-.8-.7-1.3-1.6-1.3-2.9,0-2.6,1.6-4,4.9-4.1l4.2-.2v1.8l-2.5.2c-.9,0-1.6.2-2.2.4-.5.2-.9.4-1.1.8-.2.3-.3.7-.3,1.2s.1.9.4,1.2.6.4.9.5c.3,0,.7.1,1,.1,1.1,0,2-.4,2.6-1.1s.9-1.8.9-3.2h1.1c0,1.3-.2,2.5-.6,3.4-.4,1-1,1.7-1.8,2.2s-1.8.8-2.9.8-2.5-.3-3.3-1v-.1ZM149.5,18.2c-.5-.4-1.2-.5-2-.5s-1.4.1-1.9.4c-.4.3-.7.7-.8,1.4l-3.1-.6c.2-.8.6-1.5,1.1-2,.6-.6,1.2-1,2-1.3s1.6-.4,2.5-.4,2,.2,2.9.5,1.7.8,2.2,1.5c.6.7.9,1.5.9,2.5v8.6h-3.1v-8.3c0-.8-.2-1.3-.7-1.7v-.1Z" class="cls-4"/>
      <path d="M155.2,15.5h3v12.6h-3v-12.6ZM163.6,19.1c-.2-.5-.5-.8-.9-1.1-.4-.2-.9-.3-1.5-.3-.9,0-1.7.3-2.2.9s-.8,1.4-.7,2.5l-.6-.2c0-1.2.2-2.2.6-3.1s.9-1.5,1.6-2c.7-.5,1.5-.7,2.4-.7s1.8.2,2.5.6,1.3,1,1.8,1.8c.4.8.6,1.7.6,2.8v7.7h-3.2v-7.1c0-.8,0-1.4-.3-1.9l-.1.1Z" class="cls-4"/>
      <path d="M171.3,27.7c-.9-.6-1.7-1.3-2.2-2.4-.5-1-.8-2.2-.8-3.5s.3-2.5.8-3.5,1.3-1.8,2.2-2.4,2-.8,3.3-.8,2.7.5,3.5,1.6c.8,1.1,1.2,2.7,1.2,4.7,0,1.3-.1,2.4-.5,3.5-.3,1.1-.8,1.9-1.6,2.6-.7.7-1.6,1-2.7,1s-2.3-.3-3.3-.8h.1ZM176.7,25.6c.5-.3,1-.8,1.3-1.5s.5-1.4.5-2.4c0-1.4-.3-2.4-1-3.2-.6-.7-1.5-1.1-2.7-1.1s-1.9.4-2.5,1.1-.9,1.8-.9,3.2.3,2.5.9,3.2,1.4,1.1,2.5,1.1,1.3-.2,1.8-.5l.1.1ZM178.3,24.7l.7-3.3-.7-2.8v-7.3h3.2v16.8h-3.2v-3.4Z" class="cls-4"/>
      <path d="M182.8,12.9h0c0-.9.7-1.6,1.6-1.6s1.6.7,1.6,1.6h0c0,.9-.7,1.6-1.6,1.6s-1.6-.7-1.6-1.6ZM185.8,12.9h0c0-.8-.6-1.4-1.4-1.4s-1.4.7-1.4,1.4h0c0,.8.6,1.4,1.4,1.4s1.4-.7,1.4-1.4ZM183.8,12h.7c.2,0,.4,0,.5.2s.1.2.1.4h0c0,.3-.2.4-.4.5l.5.6h-.4l-.4-.6h-.3v.6h-.3v-1.7h0ZM184.5,12.8c.2,0,.3-.1.3-.3h0c0-.2-.1-.3-.3-.3h-.4v.5h.4v.1Z" class="cls-4"/>
    </g>
  </g>
</svg>