<?xml version="1.0" encoding="UTF-8"?>
<svg id="Layer_1" data-name="Layer 1" xmlns="http://www.w3.org/2000/svg" xmlns:xlink="http://www.w3.org/1999/xlink" viewBox="0 0 1440 1440">
  <defs>
    <style>
      .cls-1 {
        fill: url(#linear-gradient-3);
      }

      .cls-2 {
        fill: url(#linear-gradient-2);
      }

      .cls-3 {
        fill: url(#linear-gradient);
      }

      .cls-4 {
        fill: #1d2256;
      }
    </style>
    <linearGradient id="linear-gradient" x1="417.28" y1="696.54" x2="447.44" y2="696.54" gradientUnits="userSpaceOnUse">
      <stop offset="0" stop-color="#f7941d"/>
      <stop offset="1" stop-color="#f15b22"/>
    </linearGradient>
    <linearGradient id="linear-gradient-2" y1="726.09" x2="531.86" y2="726.09" xlink:href="#linear-gradient"/>
    <linearGradient id="linear-gradient-3" x1="455.18" y1="768.77" x2="552.26" y2="768.77" xlink:href="#linear-gradient"/>
  </defs>
  <g>
    <polygon class="cls-3" points="447.44 678.16 417.28 745.07 417.28 648 447.44 678.16"/>
    <polygon class="cls-2" points="531.86 716.13 438.45 783.86 417.28 783.86 417.28 762.23 484.96 668.32 531.86 716.13"/>
    <polygon class="cls-1" points="522.09 753.69 455.18 783.85 552.26 783.85 522.09 753.69"/>
  </g>
  <g>
    <path class="cls-4" d="M589.13,753.11c3.02,1.61,4.86,4.43,5.54,8.45h-4.13c-.49-2.25-1.51-3.89-3.06-4.92-1.55-1.03-3.5-1.54-5.85-1.54-2.79,0-5.15,1.07-7.06,3.21-1.91,2.14-2.87,5.33-2.87,9.57,0,3.66.79,6.65,2.36,8.95,1.58,2.3,4.15,3.45,7.71,3.45,2.73,0,4.98-.81,6.77-2.42,1.79-1.62,2.7-4.23,2.75-7.84h-9.65v-3.46h13.53v16.49h-2.69l-1.01-3.96c-1.39,1.55-2.62,2.63-3.69,3.23-1.8,1.03-4.09,1.55-6.87,1.55-3.59,0-6.68-1.18-9.27-3.55-2.82-2.96-4.23-7.03-4.23-12.21s1.38-9.27,4.13-12.31c2.62-2.91,6.01-4.36,10.17-4.36,2.85,0,5.32.56,7.4,1.68Z"/>
    <path class="cls-4" d="M605.08,760.58h3.59v3.88c.29-.76,1.01-1.67,2.16-2.76,1.15-1.08,2.47-1.63,3.97-1.63.07,0,.19,0,.36.02.17.01.45.04.86.08v3.99c-.22-.04-.43-.07-.62-.08-.19-.01-.4-.02-.62-.02-1.9,0-3.36.61-4.38,1.84-1.02,1.22-1.53,2.63-1.53,4.23v12.92h-3.78v-22.47Z"/>
    <path class="cls-4" d="M638.99,762.82c1.99,1.93,2.98,4.76,2.98,8.51s-.88,6.61-2.62,8.97c-1.75,2.36-4.47,3.54-8.15,3.54-3.07,0-5.51-1.04-7.31-3.13-1.81-2.09-2.71-4.89-2.71-8.42,0-3.77.95-6.78,2.85-9.01,1.9-2.24,4.46-3.35,7.67-3.35,2.87,0,5.3.96,7.29,2.89ZM636.65,777.75c.92-1.89,1.38-4,1.38-6.32,0-2.1-.33-3.8-1-5.11-1.05-2.07-2.86-3.1-5.44-3.1-2.28,0-3.94.88-4.98,2.64-1.04,1.76-1.56,3.88-1.56,6.37s.52,4.38,1.56,5.97c1.04,1.59,2.68,2.39,4.94,2.39,2.47,0,4.17-.95,5.09-2.84Z"/>
    <path class="cls-4" d="M653.82,760.58v14.92c0,1.15.18,2.08.53,2.81.65,1.34,1.87,2.01,3.66,2.01,2.56,0,4.3-1.17,5.23-3.52.5-1.26.76-2.99.76-5.18v-11.03h3.78v22.47h-3.57l.04-3.31c-.48.85-1.08,1.57-1.79,2.16-1.41,1.17-3.13,1.76-5.15,1.76-3.14,0-5.28-1.07-6.42-3.21-.62-1.15-.93-2.68-.93-4.59v-15.27h3.86Z"/>
    <path class="cls-4" d="M677.06,760.68h3.69v2.98c.76-1.02,1.59-1.81,2.48-2.37,1.28-.84,2.78-1.26,4.5-1.26,2.55,0,4.72.98,6.5,2.93,1.78,1.95,2.67,4.74,2.67,8.36,0,4.9-1.28,8.39-3.85,10.49-1.63,1.33-3.52,1.99-5.69,1.99-1.7,0-3.12-.37-4.28-1.11-.67-.42-1.43-1.14-2.25-2.16v11.47h-3.78v-31.32ZM691.27,778.29c1.17-1.48,1.76-3.68,1.76-6.62,0-1.79-.26-3.33-.78-4.62-.98-2.48-2.78-3.71-5.39-3.71s-4.42,1.31-5.39,3.92c-.52,1.4-.78,3.17-.78,5.33,0,1.73.26,3.21.78,4.43.98,2.32,2.78,3.48,5.39,3.48,1.77,0,3.24-.74,4.41-2.21Z"/>
  </g>
  <g>
    <path class="cls-4" d="M567.43,684.77h10.84v54.7h-10.84v-54.7ZM573.97,729.43h30.22v10.05h-30.22v-10.05Z"/>
    <path class="cls-4" d="M611.9,737.56c-2.74-2.13-4.11-5.32-4.11-9.57,0-8.56,5.37-13.02,16.11-13.4l13.56-.64v5.82l-8.05.64c-2.98.21-5.32.64-7.02,1.28-1.7.64-2.92,1.46-3.67,2.47-.74,1.01-1.09,2.29-1.04,3.83,0,1.65.44,2.9,1.32,3.75s1.86,1.41,2.95,1.67c1.09.27,2.17.4,3.23.4,3.72,0,6.55-1.18,8.49-3.55,1.94-2.36,2.88-5.81,2.83-10.33h3.51c0,4.36-.67,8.09-1.99,11.2-1.33,3.11-3.3,5.49-5.9,7.14-2.61,1.65-5.74,2.47-9.41,2.47-4.47,0-8.07-1.06-10.8-3.19ZM634.11,707.1c-1.6-1.17-3.78-1.75-6.54-1.75s-4.71.47-6.14,1.39c-1.44.93-2.34,2.41-2.71,4.43l-10.05-1.84c.58-2.55,1.79-4.76,3.63-6.62,1.83-1.86,4.05-3.27,6.66-4.23,2.6-.96,5.34-1.44,8.21-1.44,3.35,0,6.51.51,9.49,1.51,2.98,1.01,5.39,2.6,7.26,4.78,1.86,2.18,2.79,4.92,2.79,8.21v27.91h-10.21v-26.95c0-2.45-.8-4.25-2.39-5.42Z"/>
    <path class="cls-4" d="M652.87,698.33h9.73v41.15h-9.73v-41.15ZM680.06,710.17c-.64-1.57-1.61-2.72-2.91-3.47-1.3-.74-2.96-1.12-4.98-1.12-3.08,0-5.46.96-7.14,2.87-1.67,1.91-2.49,4.65-2.43,8.21l-2.07-.72c0-3.83.6-7.16,1.79-10.01,1.2-2.84,2.91-5.04,5.14-6.58,2.23-1.54,4.84-2.31,7.81-2.31s5.83.69,8.25,2.07c2.42,1.38,4.32,3.38,5.7,5.98,1.38,2.61,2.07,5.66,2.07,9.17v25.2h-10.29v-23.2c0-2.5-.32-4.53-.96-6.1Z"/>
    <path class="cls-4" d="M705.27,738.04c-3.08-1.81-5.48-4.36-7.18-7.65-1.7-3.3-2.55-7.12-2.55-11.48s.85-8.19,2.55-11.48c1.7-3.3,4.09-5.85,7.18-7.65,3.08-1.81,6.64-2.71,10.68-2.71,5.1,0,8.94,1.77,11.52,5.3,2.58,3.54,3.87,8.65,3.87,15.35.05,4.09-.45,7.88-1.52,11.36-1.06,3.48-2.75,6.3-5.06,8.45-2.31,2.15-5.25,3.23-8.81,3.23-4.04,0-7.6-.9-10.68-2.71ZM722.85,731.38c1.78-1.09,3.2-2.7,4.27-4.82,1.06-2.13,1.59-4.68,1.59-7.65,0-4.47-1.05-7.89-3.15-10.29-2.1-2.39-5.01-3.59-8.73-3.59-3.46,0-6.14,1.2-8.05,3.59-1.91,2.39-2.87,5.82-2.87,10.29s.96,8.07,2.87,10.49c1.91,2.42,4.6,3.63,8.05,3.63,2.23,0,4.24-.55,6.02-1.64ZM727.92,728.31l2.31-10.68-2.31-9.01v-23.84h10.45v54.7h-10.45v-11.16Z"/>
    <path class="cls-4" d="M753.25,738.04c-3.22-1.81-5.69-4.35-7.42-7.62-1.73-3.27-2.59-7.11-2.59-11.52s.85-8.19,2.55-11.48c1.7-3.3,4.13-5.85,7.3-7.65,3.16-1.81,6.87-2.71,11.12-2.71,6.33,0,11.19,1.93,14.59,5.78,3.4,3.86,5.1,9.32,5.1,16.39-3.46-.58-6.89-.98-10.29-1.2,0-4.15-.74-7.32-2.23-9.53-1.49-2.2-3.96-3.31-7.42-3.31-3.67,0-6.31,1.1-7.93,3.31-1.62,2.21-2.43,5.52-2.43,9.93,0,3.3.37,5.95,1.12,7.97.74,2.02,1.91,3.51,3.51,4.47,1.59.96,3.72,1.44,6.38,1.44s4.51-.48,5.86-1.44,2.38-2.52,3.07-4.7l10.05,2.63c-1.59,4.2-3.89,7.24-6.9,9.13-3,1.89-7.03,2.83-12.08,2.83-4.36,0-8.15-.9-11.36-2.71ZM749.54,715.39h33.25l1.12,3.59v3.43h-34.37v-7.02Z"/>
    <path class="cls-4" d="M797.96,718.9l-13.95-20.57h11.96l9.89,14.91,9.89-14.91h12.12l-13.95,20.57,13.95,20.57h-12.12l-13-19.3,3.11-6.06,3.11,6.06-13,19.3h-11.96l13.95-20.57Z"/>
    <path class="cls-4" d="M831.14,698.33h10.45v8.53l-2.47,12.04,2.47,11.32v22.8h-10.45v-54.7ZM844.66,737.92c-2.31-1.89-4-4.44-5.06-7.65-1.06-3.21-1.57-6.87-1.51-10.96,0-4.47.57-8.37,1.71-11.72,1.14-3.35,2.87-5.94,5.18-7.77,2.31-1.83,5.14-2.75,8.49-2.75,4.04,0,7.6.9,10.68,2.71,3.08,1.81,5.48,4.36,7.18,7.65,1.7,3.3,2.55,7.12,2.55,11.48s-.85,8.19-2.55,11.48c-1.7,3.3-4.09,5.85-7.18,7.65-3.08,1.81-6.65,2.71-10.68,2.71-3.56,0-6.5-.94-8.81-2.83ZM860.65,729.39c1.91-2.42,2.87-5.91,2.87-10.49s-.96-7.89-2.87-10.29c-1.91-2.39-4.6-3.59-8.05-3.59-3.72,0-6.63,1.2-8.73,3.59-2.1,2.39-3.15,5.82-3.15,10.29,0,2.98.53,5.53,1.6,7.65,1.06,2.13,2.48,3.73,4.27,4.82s3.79,1.64,6.02,1.64c3.45,0,6.14-1.21,8.05-3.63Z"/>
    <path class="cls-4" d="M881.59,737.56c-2.74-2.13-4.11-5.32-4.11-9.57,0-8.56,5.37-13.02,16.11-13.4l13.56-.64v5.82l-8.05.64c-2.98.21-5.32.64-7.02,1.28-1.7.64-2.92,1.46-3.67,2.47-.74,1.01-1.09,2.29-1.04,3.83,0,1.65.44,2.9,1.32,3.75s1.86,1.41,2.95,1.67c1.09.27,2.17.4,3.23.4,3.72,0,6.55-1.18,8.49-3.55,1.94-2.36,2.88-5.81,2.83-10.33h3.51c0,4.36-.67,8.09-1.99,11.2-1.33,3.11-3.3,5.49-5.9,7.14-2.61,1.65-5.74,2.47-9.41,2.47-4.47,0-8.07-1.06-10.8-3.19ZM903.8,707.1c-1.6-1.17-3.78-1.75-6.54-1.75s-4.71.47-6.14,1.39c-1.44.93-2.34,2.41-2.71,4.43l-10.05-1.84c.58-2.55,1.79-4.76,3.63-6.62,1.83-1.86,4.05-3.27,6.66-4.23,2.6-.96,5.34-1.44,8.21-1.44,3.35,0,6.51.51,9.49,1.51,2.98,1.01,5.39,2.6,7.26,4.78,1.86,2.18,2.79,4.92,2.79,8.21v27.91h-10.21v-26.95c0-2.45-.8-4.25-2.39-5.42Z"/>
    <path class="cls-4" d="M922.55,698.33h9.73v41.15h-9.73v-41.15ZM949.74,710.17c-.64-1.57-1.61-2.72-2.91-3.47-1.3-.74-2.96-1.12-4.98-1.12-3.08,0-5.46.96-7.14,2.87-1.67,1.91-2.49,4.65-2.43,8.21l-2.07-.72c0-3.83.6-7.16,1.79-10.01,1.2-2.84,2.91-5.04,5.14-6.58,2.23-1.54,4.84-2.31,7.81-2.31s5.83.69,8.25,2.07c2.42,1.38,4.32,3.38,5.7,5.98,1.38,2.61,2.07,5.66,2.07,9.17v25.2h-10.29v-23.2c0-2.5-.32-4.53-.96-6.1Z"/>
    <path class="cls-4" d="M974.96,738.04c-3.08-1.81-5.48-4.36-7.18-7.65-1.7-3.3-2.55-7.12-2.55-11.48s.85-8.19,2.55-11.48c1.7-3.3,4.09-5.85,7.18-7.65,3.08-1.81,6.64-2.71,10.68-2.71,5.1,0,8.94,1.77,11.52,5.3,2.58,3.54,3.87,8.65,3.87,15.35.05,4.09-.45,7.88-1.52,11.36-1.06,3.48-2.75,6.3-5.06,8.45-2.31,2.15-5.25,3.23-8.81,3.23-4.04,0-7.6-.9-10.68-2.71ZM992.54,731.38c1.78-1.09,3.2-2.7,4.27-4.82,1.06-2.13,1.59-4.68,1.59-7.65,0-4.47-1.05-7.89-3.15-10.29-2.1-2.39-5.01-3.59-8.73-3.59-3.46,0-6.14,1.2-8.05,3.59-1.91,2.39-2.87,5.82-2.87,10.29s.96,8.07,2.87,10.49c1.91,2.42,4.6,3.63,8.05,3.63,2.23,0,4.24-.55,6.02-1.64ZM997.6,728.31l2.31-10.68-2.31-9.01v-23.84h10.45v54.7h-10.45v-11.16Z"/>
    <path class="cls-4" d="M1012.29,690.02v-.03c0-2.82,2.29-5.21,5.23-5.21s5.2,2.35,5.2,5.19v.03c0,2.82-2.29,5.21-5.23,5.21s-5.2-2.35-5.2-5.19ZM1022.17,689.99v-.03c0-2.58-2-4.67-4.65-4.67s-4.68,2.12-4.68,4.7v.03c0,2.58,2,4.67,4.65,4.67s4.68-2.12,4.68-4.7ZM1015.4,687.11h2.43c.73,0,1.3.22,1.66.58.3.3.45.68.45,1.15v.03c0,.88-.52,1.43-1.27,1.66l1.47,2.05h-1.24l-1.33-1.89h-1.14v1.89h-1.04v-5.46ZM1017.79,689.77c.68,0,1.08-.33,1.08-.85v-.03c0-.56-.4-.85-1.08-.85h-1.35v1.73h1.35Z"/>
  </g>
</svg>